<mxfile host="app.diagrams.net" modified="2020-09-16T03:48:38.661Z" agent="5.0 (X11; Linux x86_64) AppleWebKit/537.36 (KHTML, like Gecko) Chrome/85.0.4183.83 Safari/537.36" etag="vyD3mdvH1tkcf4ur_AWl" version="13.7.1" type="github">
  <diagram id="prtHgNgQTEPvFCAcTncT" name="Page-1">
    <mxGraphModel dx="1325" dy="1841" grid="1" gridSize="10" guides="1" tooltips="1" connect="1" arrows="1" fold="1" page="1" pageScale="1" pageWidth="827" pageHeight="1169" math="0" shadow="0">
      <root>
        <mxCell id="0" />
        <mxCell id="1" parent="0" />
        <mxCell id="sMqYdDsB5LeZ5myS3kyH-283" value="" style="endArrow=classic;startArrow=classic;html=1;entryX=0.5;entryY=0;entryDx=0;entryDy=0;" edge="1" parent="1" target="sMqYdDsB5LeZ5myS3kyH-75">
          <mxGeometry width="50" height="50" relative="1" as="geometry">
            <mxPoint x="522.5" y="1890" as="sourcePoint" />
            <mxPoint x="652.5" y="2020" as="targetPoint" />
            <Array as="points" />
          </mxGeometry>
        </mxCell>
        <mxCell id="dNxyNK7c78bLwvsdeMH5-19" value="" style="swimlane;html=1;childLayout=stackLayout;resizeParent=1;resizeParentMax=0;horizontal=0;startSize=20;horizontalStack=0;" parent="1" vertex="1">
          <mxGeometry x="300" y="-10" width="2380" height="2240" as="geometry" />
        </mxCell>
        <mxCell id="dNxyNK7c78bLwvsdeMH5-20" value="" style="swimlane;html=1;startSize=20;horizontal=0;" parent="dNxyNK7c78bLwvsdeMH5-19" vertex="1">
          <mxGeometry x="20" width="2360" height="2240" as="geometry">
            <mxRectangle x="20" width="2360" height="40" as="alternateBounds" />
          </mxGeometry>
        </mxCell>
        <mxCell id="sMqYdDsB5LeZ5myS3kyH-6" value="" style="endArrow=classic;html=1;exitX=1;exitY=0.5;exitDx=0;exitDy=0;entryX=0;entryY=0.5;entryDx=0;entryDy=0;" edge="1" parent="dNxyNK7c78bLwvsdeMH5-20" source="sMqYdDsB5LeZ5myS3kyH-7" target="sMqYdDsB5LeZ5myS3kyH-5">
          <mxGeometry width="50" height="50" relative="1" as="geometry">
            <mxPoint x="780" y="520" as="sourcePoint" />
            <mxPoint x="830" y="470" as="targetPoint" />
          </mxGeometry>
        </mxCell>
        <mxCell id="sMqYdDsB5LeZ5myS3kyH-21" value="" style="endArrow=classic;html=1;exitX=0.388;exitY=1.2;exitDx=0;exitDy=0;entryX=0.5;entryY=0;entryDx=0;entryDy=0;exitPerimeter=0;" edge="1" parent="dNxyNK7c78bLwvsdeMH5-20" source="sMqYdDsB5LeZ5myS3kyH-22" target="sMqYdDsB5LeZ5myS3kyH-20">
          <mxGeometry width="50" height="50" relative="1" as="geometry">
            <mxPoint x="577" y="490" as="sourcePoint" />
            <mxPoint x="747" y="490" as="targetPoint" />
          </mxGeometry>
        </mxCell>
        <mxCell id="sMqYdDsB5LeZ5myS3kyH-17" value="Groups" style="shape=partialRectangle;whiteSpace=wrap;html=1;left=0;right=0;fillColor=none;" vertex="1" parent="dNxyNK7c78bLwvsdeMH5-20">
          <mxGeometry x="344" y="380" width="66" height="30" as="geometry" />
        </mxCell>
        <mxCell id="sMqYdDsB5LeZ5myS3kyH-16" value="Users" style="shape=partialRectangle;whiteSpace=wrap;html=1;left=0;right=0;fillColor=none;" vertex="1" parent="dNxyNK7c78bLwvsdeMH5-20">
          <mxGeometry x="422.5" y="380" width="55" height="30" as="geometry" />
        </mxCell>
        <mxCell id="sMqYdDsB5LeZ5myS3kyH-18" value="Categories&lt;span style=&quot;color: rgba(0 , 0 , 0 , 0) ; font-family: monospace ; font-size: 0px&quot;&gt;%3CmxGraphModel%3E%3Croot%3E%3CmxCell%20id%3D%220%22%2F%3E%3CmxCell%20id%3D%221%22%20parent%3D%220%22%2F%3E%3CmxCell%20id%3D%222%22%20value%3D%22User%22%20style%3D%22shape%3DpartialRectangle%3BwhiteSpace%3Dwrap%3Bhtml%3D1%3Bleft%3D0%3Bright%3D0%3BfillColor%3Dnone%3B%22%20vertex%3D%221%22%20parent%3D%221%22%3E%3CmxGeometry%20x%3D%22790%22%20y%3D%22-210%22%20width%3D%22120%22%20height%3D%2230%22%20as%3D%22geometry%22%2F%3E%3C%2FmxCell%3E%3C%2Froot%3E%3C%2FmxGraphModel%3E&lt;/span&gt;" style="shape=partialRectangle;whiteSpace=wrap;html=1;left=0;right=0;fillColor=none;" vertex="1" parent="dNxyNK7c78bLwvsdeMH5-20">
          <mxGeometry x="490" y="380" width="80" height="30" as="geometry" />
        </mxCell>
        <mxCell id="sMqYdDsB5LeZ5myS3kyH-226" value="ConfigEvents" style="shape=partialRectangle;whiteSpace=wrap;html=1;left=0;right=0;fillColor=none;" vertex="1" parent="dNxyNK7c78bLwvsdeMH5-20">
          <mxGeometry x="177" y="380" width="66" height="30" as="geometry" />
        </mxCell>
        <mxCell id="sMqYdDsB5LeZ5myS3kyH-229" value="Rooms" style="shape=partialRectangle;whiteSpace=wrap;html=1;left=0;right=0;fillColor=none;" vertex="1" parent="dNxyNK7c78bLwvsdeMH5-20">
          <mxGeometry x="274" y="380" width="66" height="30" as="geometry" />
        </mxCell>
        <mxCell id="sMqYdDsB5LeZ5myS3kyH-221" value="Items" style="shape=partialRectangle;whiteSpace=wrap;html=1;left=0;right=0;fillColor=none;" vertex="1" parent="dNxyNK7c78bLwvsdeMH5-20">
          <mxGeometry x="584" y="380" width="60" height="30" as="geometry" />
        </mxCell>
        <mxCell id="sMqYdDsB5LeZ5myS3kyH-223" value="Danh sách lựa chọn" style="text;html=1;align=center;verticalAlign=middle;resizable=0;points=[];autosize=1;rotation=0;" vertex="1" parent="dNxyNK7c78bLwvsdeMH5-20">
          <mxGeometry x="539" y="450" width="120" height="20" as="geometry" />
        </mxCell>
        <mxCell id="sMqYdDsB5LeZ5myS3kyH-58" value="Kiểu hiển thị" style="text;html=1;align=center;verticalAlign=middle;resizable=0;points=[];autosize=1;" vertex="1" parent="dNxyNK7c78bLwvsdeMH5-20">
          <mxGeometry x="774" y="540" width="80" height="20" as="geometry" />
        </mxCell>
        <mxCell id="dNxyNK7c78bLwvsdeMH5-24" value="Quản trị viên" style="rounded=0;whiteSpace=wrap;html=1;fontFamily=Helvetica;fontSize=12;align=center;" parent="dNxyNK7c78bLwvsdeMH5-20" vertex="1">
          <mxGeometry x="180" y="530" width="120" height="60" as="geometry" />
        </mxCell>
        <mxCell id="sMqYdDsB5LeZ5myS3kyH-5" value="Tạo sự kiện" style="ellipse;whiteSpace=wrap;html=1;" vertex="1" parent="dNxyNK7c78bLwvsdeMH5-20">
          <mxGeometry x="470" y="520" width="120" height="80" as="geometry" />
        </mxCell>
        <mxCell id="sMqYdDsB5LeZ5myS3kyH-23" value="" style="endArrow=classic;html=1;exitX=1;exitY=1;exitDx=0;exitDy=0;entryX=0.525;entryY=-0.15;entryDx=0;entryDy=0;entryPerimeter=0;" edge="1" parent="dNxyNK7c78bLwvsdeMH5-20" source="sMqYdDsB5LeZ5myS3kyH-5" target="sMqYdDsB5LeZ5myS3kyH-22">
          <mxGeometry width="50" height="50" relative="1" as="geometry">
            <mxPoint x="670" y="260" as="sourcePoint" />
            <mxPoint x="500" y="170" as="targetPoint" />
          </mxGeometry>
        </mxCell>
        <mxCell id="sMqYdDsB5LeZ5myS3kyH-27" value="" style="endArrow=classic;html=1;entryX=0.27;entryY=0.05;entryDx=0;entryDy=0;entryPerimeter=0;exitX=0.5;exitY=1;exitDx=0;exitDy=0;" edge="1" parent="dNxyNK7c78bLwvsdeMH5-20" source="sMqYdDsB5LeZ5myS3kyH-20" target="sMqYdDsB5LeZ5myS3kyH-25">
          <mxGeometry width="50" height="50" relative="1" as="geometry">
            <mxPoint x="780" y="790" as="sourcePoint" />
            <mxPoint x="830" y="740" as="targetPoint" />
          </mxGeometry>
        </mxCell>
        <mxCell id="sMqYdDsB5LeZ5myS3kyH-77" value="" style="endArrow=classic;html=1;exitX=0.5;exitY=1;exitDx=0;exitDy=0;entryX=0.5;entryY=0;entryDx=0;entryDy=0;" edge="1" parent="dNxyNK7c78bLwvsdeMH5-20" source="sMqYdDsB5LeZ5myS3kyH-18" target="sMqYdDsB5LeZ5myS3kyH-5">
          <mxGeometry width="50" height="50" relative="1" as="geometry">
            <mxPoint x="740" y="580" as="sourcePoint" />
            <mxPoint x="790" y="530" as="targetPoint" />
          </mxGeometry>
        </mxCell>
        <mxCell id="sMqYdDsB5LeZ5myS3kyH-55" value="" style="endArrow=classic;html=1;entryX=0;entryY=0.5;entryDx=0;entryDy=0;exitX=1.006;exitY=0.54;exitDx=0;exitDy=0;exitPerimeter=0;" edge="1" parent="dNxyNK7c78bLwvsdeMH5-20" source="sMqYdDsB5LeZ5myS3kyH-301" target="sMqYdDsB5LeZ5myS3kyH-49">
          <mxGeometry width="50" height="50" relative="1" as="geometry">
            <mxPoint x="754" y="1015" as="sourcePoint" />
            <mxPoint x="804" y="965" as="targetPoint" />
            <Array as="points">
              <mxPoint x="650" y="975" />
            </Array>
          </mxGeometry>
        </mxCell>
        <mxCell id="sMqYdDsB5LeZ5myS3kyH-7" value="Cung cấp thông tin" style="text;html=1;align=center;verticalAlign=middle;resizable=0;points=[];autosize=1;" vertex="1" parent="dNxyNK7c78bLwvsdeMH5-20">
          <mxGeometry x="322.5" y="550" width="120" height="20" as="geometry" />
        </mxCell>
        <mxCell id="sMqYdDsB5LeZ5myS3kyH-22" value="Lưu sự kiện" style="text;html=1;align=center;verticalAlign=middle;resizable=0;points=[];autosize=1;" vertex="1" parent="dNxyNK7c78bLwvsdeMH5-20">
          <mxGeometry x="620" y="625" width="80" height="20" as="geometry" />
        </mxCell>
        <mxCell id="sMqYdDsB5LeZ5myS3kyH-20" value="Events" style="shape=partialRectangle;whiteSpace=wrap;html=1;left=0;right=0;fillColor=none;" vertex="1" parent="dNxyNK7c78bLwvsdeMH5-20">
          <mxGeometry x="670" y="680" width="120" height="30" as="geometry" />
        </mxCell>
        <mxCell id="sMqYdDsB5LeZ5myS3kyH-25" value="Yêu cầu dữ liệu" style="text;html=1;align=center;verticalAlign=middle;resizable=0;points=[];autosize=1;" vertex="1" parent="dNxyNK7c78bLwvsdeMH5-20">
          <mxGeometry x="630" y="740" width="100" height="20" as="geometry" />
        </mxCell>
        <mxCell id="sMqYdDsB5LeZ5myS3kyH-8" value="Kiểm tra sự kiện" style="ellipse;whiteSpace=wrap;html=1;" vertex="1" parent="dNxyNK7c78bLwvsdeMH5-20">
          <mxGeometry x="442.5" y="740" width="120" height="80" as="geometry" />
        </mxCell>
        <mxCell id="sMqYdDsB5LeZ5myS3kyH-28" value="" style="endArrow=classic;html=1;exitX=0.202;exitY=1.242;exitDx=0;exitDy=0;entryX=1;entryY=0.5;entryDx=0;entryDy=0;exitPerimeter=0;" edge="1" parent="dNxyNK7c78bLwvsdeMH5-20" source="sMqYdDsB5LeZ5myS3kyH-25" target="sMqYdDsB5LeZ5myS3kyH-8">
          <mxGeometry width="50" height="50" relative="1" as="geometry">
            <mxPoint x="363.5" y="760" as="sourcePoint" />
            <mxPoint x="422.5" y="500" as="targetPoint" />
          </mxGeometry>
        </mxCell>
        <mxCell id="sMqYdDsB5LeZ5myS3kyH-31" value="Yêu cầu kiểm tra sự kiện" style="text;html=1;align=center;verticalAlign=middle;resizable=0;points=[];autosize=1;rotation=-5;" vertex="1" parent="dNxyNK7c78bLwvsdeMH5-20">
          <mxGeometry x="282.5" y="800" width="150" height="20" as="geometry" />
        </mxCell>
        <mxCell id="sMqYdDsB5LeZ5myS3kyH-9" value="Hệ thống&lt;span style=&quot;color: rgba(0 , 0 , 0 , 0) ; font-family: monospace ; font-size: 0px&quot;&gt;%3CmxGraphModel%3E%3Croot%3E%3CmxCell%20id%3D%220%22%2F%3E%3CmxCell%20id%3D%221%22%20parent%3D%220%22%2F%3E%3CmxCell%20id%3D%222%22%20value%3D%22Admin%22%20style%3D%22rounded%3D0%3BwhiteSpace%3Dwrap%3Bhtml%3D1%3BfontFamily%3DHelvetica%3BfontSize%3D12%3BfontColor%3D%23000000%3Balign%3Dcenter%3B%22%20vertex%3D%221%22%20parent%3D%221%22%3E%3CmxGeometry%20x%3D%22270%22%20y%3D%22200%22%20width%3D%22120%22%20height%3D%2260%22%20as%3D%22geometry%22%2F%3E%3C%2FmxCell%3E%3C%2Froot%3E%3C%2FmxGraphModel%3E&lt;/span&gt;" style="rounded=0;whiteSpace=wrap;html=1;fontFamily=Helvetica;fontSize=12;align=center;" vertex="1" parent="dNxyNK7c78bLwvsdeMH5-20">
          <mxGeometry x="159" y="810" width="120" height="60" as="geometry" />
        </mxCell>
        <mxCell id="sMqYdDsB5LeZ5myS3kyH-232" value="Lấy dữ liệu trong poll" style="text;html=1;align=center;verticalAlign=middle;resizable=0;points=[];autosize=1;" vertex="1" parent="dNxyNK7c78bLwvsdeMH5-20">
          <mxGeometry x="674" y="820" width="130" height="20" as="geometry" />
        </mxCell>
        <mxCell id="sMqYdDsB5LeZ5myS3kyH-33" value="Kết quả trả về" style="text;html=1;align=center;verticalAlign=middle;resizable=0;points=[];autosize=1;" vertex="1" parent="dNxyNK7c78bLwvsdeMH5-20">
          <mxGeometry x="352.5" y="850" width="90" height="20" as="geometry" />
        </mxCell>
        <mxCell id="sMqYdDsB5LeZ5myS3kyH-158" value="Kiểu hiển thị" style="text;html=1;align=center;verticalAlign=middle;resizable=0;points=[];autosize=1;" vertex="1" parent="dNxyNK7c78bLwvsdeMH5-20">
          <mxGeometry x="801" y="955" width="80" height="20" as="geometry" />
        </mxCell>
        <mxCell id="sMqYdDsB5LeZ5myS3kyH-61" value="" style="endArrow=classic;startArrow=classic;html=1;entryX=0.5;entryY=1;entryDx=0;entryDy=0;exitX=0.817;exitY=0.032;exitDx=0;exitDy=0;exitPerimeter=0;" edge="1" parent="dNxyNK7c78bLwvsdeMH5-20" source="sMqYdDsB5LeZ5myS3kyH-57" target="sMqYdDsB5LeZ5myS3kyH-5">
          <mxGeometry width="50" height="50" relative="1" as="geometry">
            <mxPoint x="754" y="1015" as="sourcePoint" />
            <mxPoint x="558.04" y="935" as="targetPoint" />
            <Array as="points">
              <mxPoint x="610" y="710" />
            </Array>
          </mxGeometry>
        </mxCell>
        <mxCell id="sMqYdDsB5LeZ5myS3kyH-56" value="" style="endArrow=classic;html=1;entryX=1;entryY=0.5;entryDx=0;entryDy=0;exitX=0.5;exitY=0;exitDx=0;exitDy=0;" edge="1" parent="dNxyNK7c78bLwvsdeMH5-20" source="sMqYdDsB5LeZ5myS3kyH-54" target="sMqYdDsB5LeZ5myS3kyH-49">
          <mxGeometry width="50" height="50" relative="1" as="geometry">
            <mxPoint x="594" y="1015" as="sourcePoint" />
            <mxPoint x="674" y="985" as="targetPoint" />
            <Array as="points">
              <mxPoint x="874" y="975" />
            </Array>
          </mxGeometry>
        </mxCell>
        <mxCell id="sMqYdDsB5LeZ5myS3kyH-50" value="" style="endArrow=classic;html=1;exitX=1.005;exitY=0.492;exitDx=0;exitDy=0;entryX=0.5;entryY=1;entryDx=0;entryDy=0;exitPerimeter=0;" edge="1" parent="dNxyNK7c78bLwvsdeMH5-20" source="sMqYdDsB5LeZ5myS3kyH-51" target="sMqYdDsB5LeZ5myS3kyH-49">
          <mxGeometry width="50" height="50" relative="1" as="geometry">
            <mxPoint x="294" y="1205" as="sourcePoint" />
            <mxPoint x="804" y="975" as="targetPoint" />
            <Array as="points">
              <mxPoint x="724" y="1075" />
            </Array>
          </mxGeometry>
        </mxCell>
        <mxCell id="sMqYdDsB5LeZ5myS3kyH-236" value="Thông tin sự kiện" style="text;html=1;align=center;verticalAlign=middle;resizable=0;points=[];autosize=1;" vertex="1" parent="dNxyNK7c78bLwvsdeMH5-20">
          <mxGeometry x="916" y="955" width="110" height="20" as="geometry" />
        </mxCell>
        <mxCell id="sMqYdDsB5LeZ5myS3kyH-301" value="Câu hỏi" style="text;html=1;align=center;verticalAlign=middle;resizable=0;points=[];autosize=1;" vertex="1" parent="dNxyNK7c78bLwvsdeMH5-20">
          <mxGeometry x="581.25" y="965" width="60" height="20" as="geometry" />
        </mxCell>
        <mxCell id="sMqYdDsB5LeZ5myS3kyH-54" value="MultiOption" style="shape=partialRectangle;whiteSpace=wrap;html=1;left=0;right=0;fillColor=none;" vertex="1" parent="dNxyNK7c78bLwvsdeMH5-20">
          <mxGeometry x="814" y="1005" width="120" height="30" as="geometry" />
        </mxCell>
        <mxCell id="sMqYdDsB5LeZ5myS3kyH-53" value="Response" style="shape=partialRectangle;whiteSpace=wrap;html=1;left=0;right=0;fillColor=none;" vertex="1" parent="dNxyNK7c78bLwvsdeMH5-20">
          <mxGeometry x="524" y="1005" width="120" height="30" as="geometry" />
        </mxCell>
        <mxCell id="sMqYdDsB5LeZ5myS3kyH-49" value="Tạo giao diên lựa chọn" style="ellipse;whiteSpace=wrap;html=1;" vertex="1" parent="dNxyNK7c78bLwvsdeMH5-20">
          <mxGeometry x="664" y="935" width="120" height="80" as="geometry" />
        </mxCell>
        <mxCell id="sMqYdDsB5LeZ5myS3kyH-238" value="Users" style="shape=partialRectangle;whiteSpace=wrap;html=1;left=0;right=0;fillColor=none;" vertex="1" parent="dNxyNK7c78bLwvsdeMH5-20">
          <mxGeometry x="709" y="1120" width="81" height="30" as="geometry" />
        </mxCell>
        <mxCell id="sMqYdDsB5LeZ5myS3kyH-65" value="Yêu cầu tạo Order" style="text;html=1;align=center;verticalAlign=middle;resizable=0;points=[];autosize=1;" vertex="1" parent="dNxyNK7c78bLwvsdeMH5-20">
          <mxGeometry x="133" y="1170" width="110" height="20" as="geometry" />
        </mxCell>
        <mxCell id="sMqYdDsB5LeZ5myS3kyH-245" value="Đúng" style="text;html=1;align=center;verticalAlign=middle;resizable=0;points=[];autosize=1;" vertex="1" parent="dNxyNK7c78bLwvsdeMH5-20">
          <mxGeometry x="690" y="1230" width="40" height="20" as="geometry" />
        </mxCell>
        <mxCell id="sMqYdDsB5LeZ5myS3kyH-241" value="!isSeen" style="rhombus;whiteSpace=wrap;html=1;" vertex="1" parent="dNxyNK7c78bLwvsdeMH5-20">
          <mxGeometry x="620" y="1230" width="56" height="40" as="geometry" />
        </mxCell>
        <mxCell id="sMqYdDsB5LeZ5myS3kyH-29" value="Tạo thông báo" style="ellipse;whiteSpace=wrap;html=1;" vertex="1" parent="dNxyNK7c78bLwvsdeMH5-20">
          <mxGeometry x="754" y="1210" width="120" height="80" as="geometry" />
        </mxCell>
        <mxCell id="sMqYdDsB5LeZ5myS3kyH-34" value="" style="endArrow=classic;html=1;entryX=0;entryY=0.5;entryDx=0;entryDy=0;exitX=1;exitY=0.5;exitDx=0;exitDy=0;" edge="1" parent="dNxyNK7c78bLwvsdeMH5-20" source="sMqYdDsB5LeZ5myS3kyH-241" target="sMqYdDsB5LeZ5myS3kyH-29">
          <mxGeometry width="50" height="50" relative="1" as="geometry">
            <mxPoint x="274" y="1320" as="sourcePoint" />
            <mxPoint x="664" y="1310" as="targetPoint" />
            <Array as="points">
              <mxPoint x="710" y="1250" />
            </Array>
          </mxGeometry>
        </mxCell>
        <mxCell id="sMqYdDsB5LeZ5myS3kyH-247" value="Sai" style="text;html=1;align=center;verticalAlign=middle;resizable=0;points=[];autosize=1;" vertex="1" parent="dNxyNK7c78bLwvsdeMH5-20">
          <mxGeometry x="679" y="1290" width="30" height="20" as="geometry" />
        </mxCell>
        <mxCell id="sMqYdDsB5LeZ5myS3kyH-271" value="&lt;span&gt;Không tạo thông báo mới&lt;/span&gt;" style="ellipse;shape=cloud;whiteSpace=wrap;html=1;" vertex="1" parent="dNxyNK7c78bLwvsdeMH5-20">
          <mxGeometry x="634" y="1320" width="206" height="80" as="geometry" />
        </mxCell>
        <mxCell id="sMqYdDsB5LeZ5myS3kyH-37" value="Notification" style="shape=partialRectangle;whiteSpace=wrap;html=1;left=0;right=0;fillColor=none;" vertex="1" parent="dNxyNK7c78bLwvsdeMH5-20">
          <mxGeometry x="934" y="1370" width="120" height="30" as="geometry" />
        </mxCell>
        <mxCell id="sMqYdDsB5LeZ5myS3kyH-258" value="Yêu cầu gửi thông báo" style="text;html=1;align=center;verticalAlign=middle;resizable=0;points=[];autosize=1;" vertex="1" parent="dNxyNK7c78bLwvsdeMH5-20">
          <mxGeometry x="490" y="1400" width="140" height="20" as="geometry" />
        </mxCell>
        <mxCell id="sMqYdDsB5LeZ5myS3kyH-256" value="Thông tin thông báo" style="text;html=1;align=center;verticalAlign=middle;resizable=0;points=[];autosize=1;" vertex="1" parent="dNxyNK7c78bLwvsdeMH5-20">
          <mxGeometry x="829" y="1440" width="120" height="20" as="geometry" />
        </mxCell>
        <mxCell id="sMqYdDsB5LeZ5myS3kyH-67" value="" style="endArrow=classic;html=1;exitX=0.341;exitY=1.209;exitDx=0;exitDy=0;entryX=1;entryY=0;entryDx=0;entryDy=0;exitPerimeter=0;" edge="1" parent="dNxyNK7c78bLwvsdeMH5-20" source="sMqYdDsB5LeZ5myS3kyH-68" target="sMqYdDsB5LeZ5myS3kyH-63">
          <mxGeometry width="50" height="50" relative="1" as="geometry">
            <mxPoint x="231.5" y="1830" as="sourcePoint" />
            <mxPoint x="281.5" y="1780" as="targetPoint" />
          </mxGeometry>
        </mxCell>
        <mxCell id="sMqYdDsB5LeZ5myS3kyH-69" value="" style="endArrow=classic;html=1;exitX=0.5;exitY=1;exitDx=0;exitDy=0;entryX=0.636;entryY=-0.026;entryDx=0;entryDy=0;entryPerimeter=0;" edge="1" parent="dNxyNK7c78bLwvsdeMH5-20" source="sMqYdDsB5LeZ5myS3kyH-66" target="sMqYdDsB5LeZ5myS3kyH-68">
          <mxGeometry width="50" height="50" relative="1" as="geometry">
            <mxPoint x="351.5" y="1850" as="sourcePoint" />
            <mxPoint x="350.46000000000004" y="1714" as="targetPoint" />
          </mxGeometry>
        </mxCell>
        <mxCell id="sMqYdDsB5LeZ5myS3kyH-74" value="" style="endArrow=classic;html=1;exitX=0.624;exitY=1.098;exitDx=0;exitDy=0;exitPerimeter=0;entryX=0.5;entryY=0;entryDx=0;entryDy=0;" edge="1" parent="dNxyNK7c78bLwvsdeMH5-20" source="sMqYdDsB5LeZ5myS3kyH-76" target="sMqYdDsB5LeZ5myS3kyH-71">
          <mxGeometry width="50" height="50" relative="1" as="geometry">
            <mxPoint x="263.53999999999996" y="1931.04" as="sourcePoint" />
            <mxPoint x="421.5" y="1980" as="targetPoint" />
            <Array as="points" />
          </mxGeometry>
        </mxCell>
        <mxCell id="sMqYdDsB5LeZ5myS3kyH-46" value="Thông báo" style="text;html=1;align=center;verticalAlign=middle;resizable=0;points=[];autosize=1;" vertex="1" parent="dNxyNK7c78bLwvsdeMH5-20">
          <mxGeometry x="910" y="1500" width="70" height="20" as="geometry" />
        </mxCell>
        <mxCell id="sMqYdDsB5LeZ5myS3kyH-10" value="Người dùng" style="rounded=0;whiteSpace=wrap;html=1;fontFamily=Helvetica;fontSize=12;align=center;" vertex="1" parent="dNxyNK7c78bLwvsdeMH5-20">
          <mxGeometry x="1090" y="1500" width="120" height="60" as="geometry" />
        </mxCell>
        <mxCell id="sMqYdDsB5LeZ5myS3kyH-48" value="Phản hồi" style="text;html=1;align=center;verticalAlign=middle;resizable=0;points=[];autosize=1;" vertex="1" parent="dNxyNK7c78bLwvsdeMH5-20">
          <mxGeometry x="920" y="1530" width="60" height="20" as="geometry" />
        </mxCell>
        <mxCell id="sMqYdDsB5LeZ5myS3kyH-304" value="Thông thin sự kiện" style="text;html=1;align=center;verticalAlign=middle;resizable=0;points=[];autosize=1;rotation=-15;" vertex="1" parent="dNxyNK7c78bLwvsdeMH5-20">
          <mxGeometry x="302.5" y="1720" width="110" height="20" as="geometry" />
        </mxCell>
        <mxCell id="sMqYdDsB5LeZ5myS3kyH-66" value="PollResponses" style="shape=partialRectangle;whiteSpace=wrap;html=1;left=0;right=0;fillColor=none;" vertex="1" parent="dNxyNK7c78bLwvsdeMH5-20">
          <mxGeometry x="292.5" y="1779" width="91" height="30" as="geometry" />
        </mxCell>
        <mxCell id="sMqYdDsB5LeZ5myS3kyH-289" value="Lựa chọn của user" style="text;html=1;align=center;verticalAlign=middle;resizable=0;points=[];autosize=1;" vertex="1" parent="dNxyNK7c78bLwvsdeMH5-20">
          <mxGeometry x="718" y="1798" width="120" height="20" as="geometry" />
        </mxCell>
        <mxCell id="sMqYdDsB5LeZ5myS3kyH-287" value="Users" style="shape=partialRectangle;whiteSpace=wrap;html=1;left=0;right=0;fillColor=none;" vertex="1" parent="dNxyNK7c78bLwvsdeMH5-20">
          <mxGeometry x="880" y="1804" width="91" height="30" as="geometry" />
        </mxCell>
        <mxCell id="sMqYdDsB5LeZ5myS3kyH-281" value="Chọn ý kiến" style="ellipse;whiteSpace=wrap;html=1;" vertex="1" parent="dNxyNK7c78bLwvsdeMH5-20">
          <mxGeometry x="554" y="1779" width="120" height="80" as="geometry" />
        </mxCell>
        <mxCell id="sMqYdDsB5LeZ5myS3kyH-310" value="Thông báo phản hồi" style="text;html=1;align=center;verticalAlign=middle;resizable=0;points=[];autosize=1;" vertex="1" parent="dNxyNK7c78bLwvsdeMH5-20">
          <mxGeometry x="740" y="1839" width="120" height="20" as="geometry" />
        </mxCell>
        <mxCell id="sMqYdDsB5LeZ5myS3kyH-285" value="Thông tin lựa chọn" style="text;html=1;align=center;verticalAlign=middle;resizable=0;points=[];autosize=1;" vertex="1" parent="dNxyNK7c78bLwvsdeMH5-20">
          <mxGeometry x="394" y="1840" width="120" height="20" as="geometry" />
        </mxCell>
        <mxCell id="sMqYdDsB5LeZ5myS3kyH-68" value="Thông tin lựa chọn" style="text;html=1;align=center;verticalAlign=middle;resizable=0;points=[];autosize=1;" vertex="1" parent="dNxyNK7c78bLwvsdeMH5-20">
          <mxGeometry x="243" y="1860" width="120" height="20" as="geometry" />
        </mxCell>
        <mxCell id="sMqYdDsB5LeZ5myS3kyH-309" value="" style="endArrow=classic;html=1;exitX=0.5;exitY=1;exitDx=0;exitDy=0;entryX=0.75;entryY=1;entryDx=0;entryDy=0;" edge="1" parent="dNxyNK7c78bLwvsdeMH5-20" source="sMqYdDsB5LeZ5myS3kyH-281" target="sMqYdDsB5LeZ5myS3kyH-10">
          <mxGeometry width="50" height="50" relative="1" as="geometry">
            <mxPoint x="712" y="1910" as="sourcePoint" />
            <mxPoint x="762" y="1860" as="targetPoint" />
            <Array as="points">
              <mxPoint x="1070" y="1859" />
            </Array>
          </mxGeometry>
        </mxCell>
        <mxCell id="sMqYdDsB5LeZ5myS3kyH-63" value="Tạo Order" style="ellipse;whiteSpace=wrap;html=1;" vertex="1" parent="dNxyNK7c78bLwvsdeMH5-20">
          <mxGeometry x="131.5" y="1890" width="120" height="80" as="geometry" />
        </mxCell>
        <mxCell id="sMqYdDsB5LeZ5myS3kyH-277" value="THông tin romIds" style="text;html=1;align=center;verticalAlign=middle;resizable=0;points=[];autosize=1;" vertex="1" parent="dNxyNK7c78bLwvsdeMH5-20">
          <mxGeometry x="599" y="1580" width="110" height="20" as="geometry" />
        </mxCell>
        <mxCell id="sMqYdDsB5LeZ5myS3kyH-47" value="" style="endArrow=classic;html=1;entryX=0.989;entryY=0.696;entryDx=0;entryDy=0;exitX=0;exitY=0.75;exitDx=0;exitDy=0;entryPerimeter=0;" edge="1" parent="dNxyNK7c78bLwvsdeMH5-20" source="sMqYdDsB5LeZ5myS3kyH-10" target="sMqYdDsB5LeZ5myS3kyH-39">
          <mxGeometry width="50" height="50" relative="1" as="geometry">
            <mxPoint x="988" y="1545" as="sourcePoint" />
            <mxPoint x="608" y="1640" as="targetPoint" />
          </mxGeometry>
        </mxCell>
        <mxCell id="sMqYdDsB5LeZ5myS3kyH-39" value="Gửi thông báo" style="ellipse;whiteSpace=wrap;html=1;" vertex="1" parent="dNxyNK7c78bLwvsdeMH5-20">
          <mxGeometry x="718" y="1500" width="120" height="80" as="geometry" />
        </mxCell>
        <mxCell id="sMqYdDsB5LeZ5myS3kyH-153" value="" style="endArrow=classic;html=1;entryX=0.375;entryY=0;entryDx=0;entryDy=0;entryPerimeter=0;exitX=0.5;exitY=1;exitDx=0;exitDy=0;" edge="1" parent="dNxyNK7c78bLwvsdeMH5-20" source="sMqYdDsB5LeZ5myS3kyH-16" target="sMqYdDsB5LeZ5myS3kyH-5">
          <mxGeometry width="50" height="50" relative="1" as="geometry">
            <mxPoint x="720" y="520" as="sourcePoint" />
            <mxPoint x="770" y="470" as="targetPoint" />
          </mxGeometry>
        </mxCell>
        <mxCell id="sMqYdDsB5LeZ5myS3kyH-155" value="" style="endArrow=classic;html=1;entryX=0;entryY=0;entryDx=0;entryDy=0;exitX=0.558;exitY=1.033;exitDx=0;exitDy=0;exitPerimeter=0;" edge="1" parent="dNxyNK7c78bLwvsdeMH5-20" source="sMqYdDsB5LeZ5myS3kyH-17" target="sMqYdDsB5LeZ5myS3kyH-5">
          <mxGeometry width="50" height="50" relative="1" as="geometry">
            <mxPoint x="720" y="520" as="sourcePoint" />
            <mxPoint x="770" y="470" as="targetPoint" />
          </mxGeometry>
        </mxCell>
        <mxCell id="sMqYdDsB5LeZ5myS3kyH-156" value="" style="endArrow=classic;html=1;entryX=1;entryY=0.5;entryDx=0;entryDy=0;exitX=0.661;exitY=0.022;exitDx=0;exitDy=0;exitPerimeter=0;" edge="1" parent="dNxyNK7c78bLwvsdeMH5-20" source="sMqYdDsB5LeZ5myS3kyH-54" target="sMqYdDsB5LeZ5myS3kyH-5">
          <mxGeometry width="50" height="50" relative="1" as="geometry">
            <mxPoint x="874" y="669" as="sourcePoint" />
            <mxPoint x="770" y="470" as="targetPoint" />
            <Array as="points">
              <mxPoint x="874" y="560" />
            </Array>
          </mxGeometry>
        </mxCell>
        <mxCell id="sMqYdDsB5LeZ5myS3kyH-224" value="" style="endArrow=classic;startArrow=classic;html=1;entryX=0.5;entryY=1;entryDx=0;entryDy=0;exitX=0.38;exitY=-0.05;exitDx=0;exitDy=0;exitPerimeter=0;" edge="1" parent="dNxyNK7c78bLwvsdeMH5-20" source="sMqYdDsB5LeZ5myS3kyH-223" target="sMqYdDsB5LeZ5myS3kyH-221">
          <mxGeometry width="50" height="50" relative="1" as="geometry">
            <mxPoint x="720" y="660" as="sourcePoint" />
            <mxPoint x="770" y="610" as="targetPoint" />
            <Array as="points" />
          </mxGeometry>
        </mxCell>
        <mxCell id="sMqYdDsB5LeZ5myS3kyH-228" value="" style="endArrow=classic;startArrow=classic;html=1;entryX=0.5;entryY=1;entryDx=0;entryDy=0;exitX=0.028;exitY=0.269;exitDx=0;exitDy=0;exitPerimeter=0;" edge="1" parent="dNxyNK7c78bLwvsdeMH5-20" source="sMqYdDsB5LeZ5myS3kyH-5" target="sMqYdDsB5LeZ5myS3kyH-226">
          <mxGeometry width="50" height="50" relative="1" as="geometry">
            <mxPoint x="580" y="560" as="sourcePoint" />
            <mxPoint x="630" y="510" as="targetPoint" />
          </mxGeometry>
        </mxCell>
        <mxCell id="sMqYdDsB5LeZ5myS3kyH-230" value="" style="endArrow=classic;html=1;entryX=0.083;entryY=0.185;entryDx=0;entryDy=0;entryPerimeter=0;exitX=0.5;exitY=1;exitDx=0;exitDy=0;" edge="1" parent="dNxyNK7c78bLwvsdeMH5-20" source="sMqYdDsB5LeZ5myS3kyH-229" target="sMqYdDsB5LeZ5myS3kyH-5">
          <mxGeometry width="50" height="50" relative="1" as="geometry">
            <mxPoint x="580" y="560" as="sourcePoint" />
            <mxPoint x="630" y="510" as="targetPoint" />
          </mxGeometry>
        </mxCell>
        <mxCell id="sMqYdDsB5LeZ5myS3kyH-231" value="" style="endArrow=classic;html=1;entryX=0.5;entryY=0;entryDx=0;entryDy=0;exitX=0.572;exitY=1.117;exitDx=0;exitDy=0;exitPerimeter=0;" edge="1" parent="dNxyNK7c78bLwvsdeMH5-20" source="sMqYdDsB5LeZ5myS3kyH-232" target="sMqYdDsB5LeZ5myS3kyH-49">
          <mxGeometry width="50" height="50" relative="1" as="geometry">
            <mxPoint x="610" y="960" as="sourcePoint" />
            <mxPoint x="660" y="910" as="targetPoint" />
          </mxGeometry>
        </mxCell>
        <mxCell id="sMqYdDsB5LeZ5myS3kyH-233" value="" style="endArrow=classic;html=1;entryX=0.5;entryY=0;entryDx=0;entryDy=0;exitX=0.854;exitY=1.022;exitDx=0;exitDy=0;exitPerimeter=0;" edge="1" parent="dNxyNK7c78bLwvsdeMH5-20" source="sMqYdDsB5LeZ5myS3kyH-20" target="sMqYdDsB5LeZ5myS3kyH-232">
          <mxGeometry width="50" height="50" relative="1" as="geometry">
            <mxPoint x="1042.48" y="670.6599999999999" as="sourcePoint" />
            <mxPoint x="994" y="895" as="targetPoint" />
          </mxGeometry>
        </mxCell>
        <mxCell id="sMqYdDsB5LeZ5myS3kyH-234" value="" style="endArrow=classic;startArrow=classic;html=1;entryX=0.5;entryY=1;entryDx=0;entryDy=0;exitX=0.783;exitY=0.1;exitDx=0;exitDy=0;exitPerimeter=0;" edge="1" parent="dNxyNK7c78bLwvsdeMH5-20" source="sMqYdDsB5LeZ5myS3kyH-5" target="sMqYdDsB5LeZ5myS3kyH-223">
          <mxGeometry width="50" height="50" relative="1" as="geometry">
            <mxPoint x="833.96" y="488" as="sourcePoint" />
            <mxPoint x="884" y="330" as="targetPoint" />
            <Array as="points" />
          </mxGeometry>
        </mxCell>
        <mxCell id="sMqYdDsB5LeZ5myS3kyH-235" value="" style="endArrow=classic;html=1;entryX=0.5;entryY=0;entryDx=0;entryDy=0;exitX=0.5;exitY=1.25;exitDx=0;exitDy=0;exitPerimeter=0;" edge="1" parent="dNxyNK7c78bLwvsdeMH5-20" source="sMqYdDsB5LeZ5myS3kyH-236" target="sMqYdDsB5LeZ5myS3kyH-29">
          <mxGeometry width="50" height="50" relative="1" as="geometry">
            <mxPoint x="610" y="960" as="sourcePoint" />
            <mxPoint x="660" y="910" as="targetPoint" />
            <Array as="points">
              <mxPoint x="920" y="1120" />
            </Array>
          </mxGeometry>
        </mxCell>
        <mxCell id="sMqYdDsB5LeZ5myS3kyH-237" value="" style="endArrow=classic;html=1;entryX=0.5;entryY=0;entryDx=0;entryDy=0;exitX=1;exitY=0.75;exitDx=0;exitDy=0;" edge="1" parent="dNxyNK7c78bLwvsdeMH5-20" source="sMqYdDsB5LeZ5myS3kyH-20" target="sMqYdDsB5LeZ5myS3kyH-236">
          <mxGeometry width="50" height="50" relative="1" as="geometry">
            <mxPoint x="1060" y="662.5" as="sourcePoint" />
            <mxPoint x="1084" y="1170" as="targetPoint" />
            <Array as="points">
              <mxPoint x="970" y="703" />
            </Array>
          </mxGeometry>
        </mxCell>
        <mxCell id="sMqYdDsB5LeZ5myS3kyH-242" value="" style="endArrow=classic;html=1;entryX=0;entryY=0.5;entryDx=0;entryDy=0;" edge="1" parent="dNxyNK7c78bLwvsdeMH5-20" source="sMqYdDsB5LeZ5myS3kyH-35" target="sMqYdDsB5LeZ5myS3kyH-241">
          <mxGeometry width="50" height="50" relative="1" as="geometry">
            <mxPoint x="520" y="830" as="sourcePoint" />
            <mxPoint x="1024.0000000000082" y="1210" as="targetPoint" />
            <Array as="points">
              <mxPoint x="550" y="1250" />
            </Array>
          </mxGeometry>
        </mxCell>
        <mxCell id="sMqYdDsB5LeZ5myS3kyH-51" value="Yêu cầu tạo giao diện lựa chọn" style="text;html=1;align=center;verticalAlign=middle;resizable=0;points=[];autosize=1;" vertex="1" parent="dNxyNK7c78bLwvsdeMH5-20">
          <mxGeometry x="430" y="1065" width="180" height="20" as="geometry" />
        </mxCell>
        <mxCell id="sMqYdDsB5LeZ5myS3kyH-243" value="" style="endArrow=classic;html=1;exitX=0.75;exitY=1;exitDx=0;exitDy=0;entryX=-0.019;entryY=0.658;entryDx=0;entryDy=0;entryPerimeter=0;" edge="1" parent="dNxyNK7c78bLwvsdeMH5-20" source="sMqYdDsB5LeZ5myS3kyH-9" target="sMqYdDsB5LeZ5myS3kyH-51">
          <mxGeometry width="50" height="50" relative="1" as="geometry">
            <mxPoint x="550" y="830" as="sourcePoint" />
            <mxPoint x="994" y="975" as="targetPoint" />
            <Array as="points">
              <mxPoint x="330" y="1078" />
            </Array>
          </mxGeometry>
        </mxCell>
        <mxCell id="sMqYdDsB5LeZ5myS3kyH-35" value="Yêu cầu tạo thông báo" style="text;html=1;align=center;verticalAlign=middle;resizable=0;points=[];autosize=1;" vertex="1" parent="dNxyNK7c78bLwvsdeMH5-20">
          <mxGeometry x="380" y="1240" width="140" height="20" as="geometry" />
        </mxCell>
        <mxCell id="sMqYdDsB5LeZ5myS3kyH-244" value="" style="endArrow=classic;html=1;entryX=0;entryY=0.5;entryDx=0;entryDy=0;exitX=0.5;exitY=1;exitDx=0;exitDy=0;" edge="1" parent="dNxyNK7c78bLwvsdeMH5-20" source="sMqYdDsB5LeZ5myS3kyH-9" target="sMqYdDsB5LeZ5myS3kyH-35">
          <mxGeometry width="50" height="50" relative="1" as="geometry">
            <mxPoint x="520" y="830" as="sourcePoint" />
            <mxPoint x="890" y="1210" as="targetPoint" />
            <Array as="points">
              <mxPoint x="340" y="1250" />
            </Array>
          </mxGeometry>
        </mxCell>
        <mxCell id="sMqYdDsB5LeZ5myS3kyH-251" value="" style="endArrow=classic;html=1;exitX=0.5;exitY=0;exitDx=0;exitDy=0;entryX=1;entryY=0.5;entryDx=0;entryDy=0;" edge="1" parent="dNxyNK7c78bLwvsdeMH5-20" source="sMqYdDsB5LeZ5myS3kyH-37" target="sMqYdDsB5LeZ5myS3kyH-29">
          <mxGeometry width="50" height="50" relative="1" as="geometry">
            <mxPoint x="610" y="1140" as="sourcePoint" />
            <mxPoint x="660" y="1090" as="targetPoint" />
          </mxGeometry>
        </mxCell>
        <mxCell id="sMqYdDsB5LeZ5myS3kyH-252" value="" style="endArrow=classic;html=1;exitX=0.25;exitY=0;exitDx=0;exitDy=0;entryX=1;entryY=1;entryDx=0;entryDy=0;" edge="1" parent="dNxyNK7c78bLwvsdeMH5-20" source="sMqYdDsB5LeZ5myS3kyH-37" target="sMqYdDsB5LeZ5myS3kyH-241">
          <mxGeometry width="50" height="50" relative="1" as="geometry">
            <mxPoint x="1004" y="1380" as="sourcePoint" />
            <mxPoint x="883.9999999999914" y="1260" as="targetPoint" />
          </mxGeometry>
        </mxCell>
        <mxCell id="sMqYdDsB5LeZ5myS3kyH-253" value="" style="endArrow=classic;html=1;exitX=0.846;exitY=1.117;exitDx=0;exitDy=0;exitPerimeter=0;entryX=0;entryY=0;entryDx=0;entryDy=0;" edge="1" parent="dNxyNK7c78bLwvsdeMH5-20" source="sMqYdDsB5LeZ5myS3kyH-258" target="sMqYdDsB5LeZ5myS3kyH-39">
          <mxGeometry width="50" height="50" relative="1" as="geometry">
            <mxPoint x="610" y="1140" as="sourcePoint" />
            <mxPoint x="660" y="1090" as="targetPoint" />
            <Array as="points" />
          </mxGeometry>
        </mxCell>
        <mxCell id="sMqYdDsB5LeZ5myS3kyH-254" value="" style="endArrow=classic;startArrow=classic;html=1;entryX=0.5;entryY=1;entryDx=0;entryDy=0;exitX=0.76;exitY=0.071;exitDx=0;exitDy=0;exitPerimeter=0;" edge="1" parent="dNxyNK7c78bLwvsdeMH5-20" source="sMqYdDsB5LeZ5myS3kyH-256" target="sMqYdDsB5LeZ5myS3kyH-37">
          <mxGeometry width="50" height="50" relative="1" as="geometry">
            <mxPoint x="840" y="1610" as="sourcePoint" />
            <mxPoint x="890" y="1560" as="targetPoint" />
          </mxGeometry>
        </mxCell>
        <mxCell id="sMqYdDsB5LeZ5myS3kyH-257" value="" style="endArrow=classic;startArrow=classic;html=1;entryX=0.5;entryY=1;entryDx=0;entryDy=0;exitX=0.76;exitY=0.071;exitDx=0;exitDy=0;exitPerimeter=0;" edge="1" parent="dNxyNK7c78bLwvsdeMH5-20" source="sMqYdDsB5LeZ5myS3kyH-39" target="sMqYdDsB5LeZ5myS3kyH-256">
          <mxGeometry width="50" height="50" relative="1" as="geometry">
            <mxPoint x="1079.2000000000003" y="1465.6799999999998" as="sourcePoint" />
            <mxPoint x="1264" y="1360" as="targetPoint" />
          </mxGeometry>
        </mxCell>
        <mxCell id="sMqYdDsB5LeZ5myS3kyH-259" value="" style="endArrow=classic;html=1;exitX=0.41;exitY=0.997;exitDx=0;exitDy=0;exitPerimeter=0;entryX=0;entryY=0;entryDx=0;entryDy=0;" edge="1" parent="dNxyNK7c78bLwvsdeMH5-20" source="sMqYdDsB5LeZ5myS3kyH-9" target="sMqYdDsB5LeZ5myS3kyH-258">
          <mxGeometry width="50" height="50" relative="1" as="geometry">
            <mxPoint x="509.20000000000005" y="829.8200000000002" as="sourcePoint" />
            <mxPoint x="1005.5735931288068" y="1471.7157287525379" as="targetPoint" />
            <Array as="points">
              <mxPoint x="330" y="1300" />
            </Array>
          </mxGeometry>
        </mxCell>
        <mxCell id="sMqYdDsB5LeZ5myS3kyH-260" value="" style="endArrow=classic;html=1;entryX=0.321;entryY=-0.023;entryDx=0;entryDy=0;entryPerimeter=0;exitX=0.75;exitY=1;exitDx=0;exitDy=0;" edge="1" parent="dNxyNK7c78bLwvsdeMH5-20" source="sMqYdDsB5LeZ5myS3kyH-238" target="sMqYdDsB5LeZ5myS3kyH-29">
          <mxGeometry width="50" height="50" relative="1" as="geometry">
            <mxPoint x="610" y="1450" as="sourcePoint" />
            <mxPoint x="660" y="1400" as="targetPoint" />
          </mxGeometry>
        </mxCell>
        <mxCell id="sMqYdDsB5LeZ5myS3kyH-261" value="" style="endArrow=classic;html=1;entryX=0.5;entryY=0;entryDx=0;entryDy=0;exitX=0.128;exitY=1.006;exitDx=0;exitDy=0;exitPerimeter=0;" edge="1" parent="dNxyNK7c78bLwvsdeMH5-20" source="sMqYdDsB5LeZ5myS3kyH-9" target="sMqYdDsB5LeZ5myS3kyH-65">
          <mxGeometry width="50" height="50" relative="1" as="geometry">
            <mxPoint x="499.96000000000026" y="831.98" as="sourcePoint" />
            <mxPoint x="498.9999999999998" y="1400" as="targetPoint" />
            <Array as="points" />
          </mxGeometry>
        </mxCell>
        <mxCell id="sMqYdDsB5LeZ5myS3kyH-262" value="" style="endArrow=classic;html=1;exitX=0.509;exitY=1.117;exitDx=0;exitDy=0;exitPerimeter=0;entryX=0.5;entryY=0;entryDx=0;entryDy=0;" edge="1" parent="dNxyNK7c78bLwvsdeMH5-20" source="sMqYdDsB5LeZ5myS3kyH-65" target="sMqYdDsB5LeZ5myS3kyH-63">
          <mxGeometry width="50" height="50" relative="1" as="geometry">
            <mxPoint x="350" y="1340" as="sourcePoint" />
            <mxPoint x="400" y="1290" as="targetPoint" />
          </mxGeometry>
        </mxCell>
        <mxCell id="sMqYdDsB5LeZ5myS3kyH-263" value="" style="endArrow=classic;html=1;exitX=0.5;exitY=1;exitDx=0;exitDy=0;entryX=1.008;entryY=0.617;entryDx=0;entryDy=0;entryPerimeter=0;" edge="1" parent="dNxyNK7c78bLwvsdeMH5-20" source="sMqYdDsB5LeZ5myS3kyH-8" target="sMqYdDsB5LeZ5myS3kyH-9">
          <mxGeometry width="50" height="50" relative="1" as="geometry">
            <mxPoint x="772.5" y="780" as="sourcePoint" />
            <mxPoint x="580" y="815" as="targetPoint" />
            <Array as="points">
              <mxPoint x="480" y="870" />
              <mxPoint x="320" y="870" />
            </Array>
          </mxGeometry>
        </mxCell>
        <mxCell id="sMqYdDsB5LeZ5myS3kyH-264" value="" style="endArrow=classic;html=1;exitX=1;exitY=0.25;exitDx=0;exitDy=0;entryX=0;entryY=1;entryDx=0;entryDy=0;" edge="1" parent="dNxyNK7c78bLwvsdeMH5-20" source="sMqYdDsB5LeZ5myS3kyH-9" target="sMqYdDsB5LeZ5myS3kyH-8">
          <mxGeometry width="50" height="50" relative="1" as="geometry">
            <mxPoint x="580" y="785" as="sourcePoint" />
            <mxPoint x="300" y="820" as="targetPoint" />
          </mxGeometry>
        </mxCell>
        <mxCell id="sMqYdDsB5LeZ5myS3kyH-265" value="" style="endArrow=classic;html=1;exitX=1;exitY=0.5;exitDx=0;exitDy=0;entryX=0;entryY=0.5;entryDx=0;entryDy=0;" edge="1" parent="dNxyNK7c78bLwvsdeMH5-20" source="dNxyNK7c78bLwvsdeMH5-24" target="sMqYdDsB5LeZ5myS3kyH-7">
          <mxGeometry width="50" height="50" relative="1" as="geometry">
            <mxPoint x="570" y="520" as="sourcePoint" />
            <mxPoint x="740" y="520" as="targetPoint" />
          </mxGeometry>
        </mxCell>
        <mxCell id="sMqYdDsB5LeZ5myS3kyH-275" value="Events" style="shape=partialRectangle;whiteSpace=wrap;html=1;left=0;right=0;fillColor=none;" vertex="1" parent="dNxyNK7c78bLwvsdeMH5-20">
          <mxGeometry x="584" y="1660" width="57.25" height="30" as="geometry" />
        </mxCell>
        <mxCell id="sMqYdDsB5LeZ5myS3kyH-269" value="" style="endArrow=classic;html=1;exitX=0.5;exitY=0;exitDx=0;exitDy=0;entryX=0.5;entryY=1;entryDx=0;entryDy=0;" edge="1" parent="dNxyNK7c78bLwvsdeMH5-20" source="sMqYdDsB5LeZ5myS3kyH-267" target="sMqYdDsB5LeZ5myS3kyH-39">
          <mxGeometry width="50" height="50" relative="1" as="geometry">
            <mxPoint x="610" y="1580" as="sourcePoint" />
            <mxPoint x="660" y="1530" as="targetPoint" />
          </mxGeometry>
        </mxCell>
        <mxCell id="sMqYdDsB5LeZ5myS3kyH-270" value="" style="endArrow=classic;html=1;exitX=0.5;exitY=0;exitDx=0;exitDy=0;entryX=0.5;entryY=1;entryDx=0;entryDy=0;" edge="1" parent="dNxyNK7c78bLwvsdeMH5-20" source="sMqYdDsB5LeZ5myS3kyH-268" target="sMqYdDsB5LeZ5myS3kyH-39">
          <mxGeometry width="50" height="50" relative="1" as="geometry">
            <mxPoint x="824" y="1610" as="sourcePoint" />
            <mxPoint x="788" y="1590" as="targetPoint" />
          </mxGeometry>
        </mxCell>
        <mxCell id="sMqYdDsB5LeZ5myS3kyH-276" value="" style="endArrow=classic;html=1;exitX=0.709;exitY=-0.014;exitDx=0;exitDy=0;entryX=-0.008;entryY=0.596;entryDx=0;entryDy=0;entryPerimeter=0;exitPerimeter=0;" edge="1" parent="dNxyNK7c78bLwvsdeMH5-20" source="sMqYdDsB5LeZ5myS3kyH-277" target="sMqYdDsB5LeZ5myS3kyH-39">
          <mxGeometry width="50" height="50" relative="1" as="geometry">
            <mxPoint x="640" y="1550" as="sourcePoint" />
            <mxPoint x="690" y="1500" as="targetPoint" />
          </mxGeometry>
        </mxCell>
        <mxCell id="sMqYdDsB5LeZ5myS3kyH-278" value="" style="endArrow=classic;html=1;exitX=0.5;exitY=0;exitDx=0;exitDy=0;entryX=0.548;entryY=1.071;entryDx=0;entryDy=0;entryPerimeter=0;" edge="1" parent="dNxyNK7c78bLwvsdeMH5-20" source="sMqYdDsB5LeZ5myS3kyH-275" target="sMqYdDsB5LeZ5myS3kyH-277">
          <mxGeometry width="50" height="50" relative="1" as="geometry">
            <mxPoint x="882.625" y="1620" as="sourcePoint" />
            <mxPoint x="987.0400000000002" y="1507.6799999999998" as="targetPoint" />
          </mxGeometry>
        </mxCell>
        <mxCell id="sMqYdDsB5LeZ5myS3kyH-267" value="ExternalAccounts" style="shape=partialRectangle;whiteSpace=wrap;html=1;left=0;right=0;fillColor=none;" vertex="1" parent="dNxyNK7c78bLwvsdeMH5-20">
          <mxGeometry x="672.75" y="1660" width="102.5" height="30" as="geometry" />
        </mxCell>
        <mxCell id="sMqYdDsB5LeZ5myS3kyH-268" value="ExternalAccountCategories" style="shape=partialRectangle;whiteSpace=wrap;html=1;left=0;right=0;fillColor=none;" vertex="1" parent="dNxyNK7c78bLwvsdeMH5-20">
          <mxGeometry x="804" y="1660" width="146" height="30" as="geometry" />
        </mxCell>
        <mxCell id="sMqYdDsB5LeZ5myS3kyH-75" value="Tạo Order mới" style="text;html=1;align=center;verticalAlign=middle;resizable=0;points=[];autosize=1;" vertex="1" parent="dNxyNK7c78bLwvsdeMH5-20">
          <mxGeometry x="251.5" y="1980" width="90" height="20" as="geometry" />
        </mxCell>
        <mxCell id="sMqYdDsB5LeZ5myS3kyH-76" value="Lưu bảng ghi từ PollResponses" style="text;html=1;align=center;verticalAlign=middle;resizable=0;points=[];autosize=1;rotation=15;" vertex="1" parent="dNxyNK7c78bLwvsdeMH5-20">
          <mxGeometry x="131.5" y="2040" width="180" height="20" as="geometry" />
        </mxCell>
        <mxCell id="sMqYdDsB5LeZ5myS3kyH-72" value="Orders" style="shape=partialRectangle;whiteSpace=wrap;html=1;left=0;right=0;fillColor=none;" vertex="1" parent="dNxyNK7c78bLwvsdeMH5-20">
          <mxGeometry x="352.5" y="2060" width="60" height="30" as="geometry" />
        </mxCell>
        <mxCell id="sMqYdDsB5LeZ5myS3kyH-71" value="DetailOrders" style="shape=partialRectangle;whiteSpace=wrap;html=1;left=0;right=0;fillColor=none;" vertex="1" parent="dNxyNK7c78bLwvsdeMH5-20">
          <mxGeometry x="266.5" y="2140" width="81" height="30" as="geometry" />
        </mxCell>
        <mxCell id="sMqYdDsB5LeZ5myS3kyH-282" value="" style="endArrow=classic;html=1;exitX=0.5;exitY=1;exitDx=0;exitDy=0;entryX=0.5;entryY=0;entryDx=0;entryDy=0;" edge="1" parent="dNxyNK7c78bLwvsdeMH5-20" source="sMqYdDsB5LeZ5myS3kyH-63" target="sMqYdDsB5LeZ5myS3kyH-76">
          <mxGeometry width="50" height="50" relative="1" as="geometry">
            <mxPoint x="407.8600000000001" y="1913.6" as="sourcePoint" />
            <mxPoint x="577.0000000000005" y="2100" as="targetPoint" />
            <Array as="points" />
          </mxGeometry>
        </mxCell>
        <mxCell id="sMqYdDsB5LeZ5myS3kyH-292" value="" style="endArrow=classic;html=1;entryX=0;entryY=0.25;entryDx=0;entryDy=0;exitX=0.958;exitY=0.313;exitDx=0;exitDy=0;exitPerimeter=0;" edge="1" parent="dNxyNK7c78bLwvsdeMH5-20" source="sMqYdDsB5LeZ5myS3kyH-39" target="sMqYdDsB5LeZ5myS3kyH-10">
          <mxGeometry width="50" height="50" relative="1" as="geometry">
            <mxPoint x="1102.96" y="1485.04" as="sourcePoint" />
            <mxPoint x="1324" y="1475" as="targetPoint" />
          </mxGeometry>
        </mxCell>
        <mxCell id="sMqYdDsB5LeZ5myS3kyH-293" value="" style="endArrow=classic;html=1;entryX=1;entryY=0;entryDx=0;entryDy=0;exitX=0.5;exitY=1;exitDx=0;exitDy=0;" edge="1" parent="dNxyNK7c78bLwvsdeMH5-20" source="sMqYdDsB5LeZ5myS3kyH-294" target="sMqYdDsB5LeZ5myS3kyH-281">
          <mxGeometry width="50" height="50" relative="1" as="geometry">
            <mxPoint x="860" y="1700" as="sourcePoint" />
            <mxPoint x="910" y="1650" as="targetPoint" />
            <Array as="points" />
          </mxGeometry>
        </mxCell>
        <mxCell id="sMqYdDsB5LeZ5myS3kyH-294" value="Thực hiện khảo sát" style="text;html=1;align=center;verticalAlign=middle;resizable=0;points=[];autosize=1;" vertex="1" parent="dNxyNK7c78bLwvsdeMH5-20">
          <mxGeometry x="920" y="1720" width="120" height="20" as="geometry" />
        </mxCell>
        <mxCell id="sMqYdDsB5LeZ5myS3kyH-295" value="" style="endArrow=classic;html=1;entryX=1;entryY=0;entryDx=0;entryDy=0;exitX=0.5;exitY=1;exitDx=0;exitDy=0;" edge="1" parent="dNxyNK7c78bLwvsdeMH5-20" source="sMqYdDsB5LeZ5myS3kyH-10" target="sMqYdDsB5LeZ5myS3kyH-294">
          <mxGeometry width="50" height="50" relative="1" as="geometry">
            <mxPoint x="1470" y="1550" as="sourcePoint" />
            <mxPoint x="976.4264068712046" y="1780.7157287525306" as="targetPoint" />
            <Array as="points" />
          </mxGeometry>
        </mxCell>
        <mxCell id="sMqYdDsB5LeZ5myS3kyH-279" value="" style="endArrow=classic;startArrow=classic;html=1;entryX=0.5;entryY=0;entryDx=0;entryDy=0;" edge="1" parent="dNxyNK7c78bLwvsdeMH5-20" source="sMqYdDsB5LeZ5myS3kyH-75" target="sMqYdDsB5LeZ5myS3kyH-72">
          <mxGeometry width="50" height="50" relative="1" as="geometry">
            <mxPoint x="202.5" y="1900" as="sourcePoint" />
            <mxPoint x="152.5" y="1860" as="targetPoint" />
            <Array as="points" />
          </mxGeometry>
        </mxCell>
        <mxCell id="sMqYdDsB5LeZ5myS3kyH-57" value="Câu hỏi" style="text;html=1;align=center;verticalAlign=middle;resizable=0;points=[];autosize=1;" vertex="1" parent="dNxyNK7c78bLwvsdeMH5-20">
          <mxGeometry x="560" y="830" width="60" height="20" as="geometry" />
        </mxCell>
        <mxCell id="sMqYdDsB5LeZ5myS3kyH-300" value="" style="endArrow=classic;startArrow=classic;html=1;entryX=0.5;entryY=1;entryDx=0;entryDy=0;exitX=0.25;exitY=0;exitDx=0;exitDy=0;" edge="1" parent="dNxyNK7c78bLwvsdeMH5-20" source="sMqYdDsB5LeZ5myS3kyH-53" target="sMqYdDsB5LeZ5myS3kyH-57">
          <mxGeometry width="50" height="50" relative="1" as="geometry">
            <mxPoint x="874" y="995" as="sourcePoint" />
            <mxPoint x="850" y="590" as="targetPoint" />
            <Array as="points" />
          </mxGeometry>
        </mxCell>
        <mxCell id="sMqYdDsB5LeZ5myS3kyH-302" value="" style="endArrow=classic;html=1;entryX=0.273;entryY=1.14;entryDx=0;entryDy=0;exitX=0.5;exitY=0;exitDx=0;exitDy=0;entryPerimeter=0;" edge="1" parent="dNxyNK7c78bLwvsdeMH5-20" source="sMqYdDsB5LeZ5myS3kyH-53" target="sMqYdDsB5LeZ5myS3kyH-301">
          <mxGeometry width="50" height="50" relative="1" as="geometry">
            <mxPoint x="904" y="995" as="sourcePoint" />
            <mxPoint x="984" y="965" as="targetPoint" />
            <Array as="points" />
          </mxGeometry>
        </mxCell>
        <mxCell id="sMqYdDsB5LeZ5myS3kyH-303" value="" style="endArrow=classic;html=1;entryX=0.654;entryY=0;entryDx=0;entryDy=0;entryPerimeter=0;exitX=0;exitY=0.5;exitDx=0;exitDy=0;" edge="1" parent="dNxyNK7c78bLwvsdeMH5-20" source="sMqYdDsB5LeZ5myS3kyH-275" target="sMqYdDsB5LeZ5myS3kyH-63">
          <mxGeometry width="50" height="50" relative="1" as="geometry">
            <mxPoint x="280" y="1910" as="sourcePoint" />
            <mxPoint x="330" y="1860" as="targetPoint" />
            <Array as="points">
              <mxPoint x="220" y="1780" />
            </Array>
          </mxGeometry>
        </mxCell>
        <mxCell id="sMqYdDsB5LeZ5myS3kyH-305" value="" style="endArrow=classic;startArrow=classic;html=1;entryX=0.75;entryY=1;entryDx=0;entryDy=0;exitX=0;exitY=0.5;exitDx=0;exitDy=0;" edge="1" parent="dNxyNK7c78bLwvsdeMH5-20" source="sMqYdDsB5LeZ5myS3kyH-281" target="sMqYdDsB5LeZ5myS3kyH-66">
          <mxGeometry width="50" height="50" relative="1" as="geometry">
            <mxPoint x="280" y="1970" as="sourcePoint" />
            <mxPoint x="330" y="1920" as="targetPoint" />
            <Array as="points">
              <mxPoint x="540" y="1860" />
              <mxPoint x="370" y="1860" />
            </Array>
          </mxGeometry>
        </mxCell>
        <mxCell id="sMqYdDsB5LeZ5myS3kyH-306" value="" style="endArrow=classic;startArrow=classic;html=1;entryX=1;entryY=0.5;entryDx=0;entryDy=0;exitX=0;exitY=0.5;exitDx=0;exitDy=0;" edge="1" parent="dNxyNK7c78bLwvsdeMH5-20" source="sMqYdDsB5LeZ5myS3kyH-287" target="sMqYdDsB5LeZ5myS3kyH-281">
          <mxGeometry width="50" height="50" relative="1" as="geometry">
            <mxPoint x="280" y="1970" as="sourcePoint" />
            <mxPoint x="330" y="1920" as="targetPoint" />
          </mxGeometry>
        </mxCell>
        <mxCell id="sMqYdDsB5LeZ5myS3kyH-248" value="" style="endArrow=classic;html=1;" edge="1" parent="dNxyNK7c78bLwvsdeMH5-20" source="sMqYdDsB5LeZ5myS3kyH-241" target="sMqYdDsB5LeZ5myS3kyH-247">
          <mxGeometry width="50" height="50" relative="1" as="geometry">
            <mxPoint x="598.2828282828286" y="1239.7979797979801" as="sourcePoint" />
            <mxPoint x="600" y="1360" as="targetPoint" />
          </mxGeometry>
        </mxCell>
        <mxCell id="sMqYdDsB5LeZ5myS3kyH-246" value="" style="endArrow=classic;html=1;entryX=0.4;entryY=0.1;entryDx=0;entryDy=0;entryPerimeter=0;" edge="1" parent="dNxyNK7c78bLwvsdeMH5-20" source="sMqYdDsB5LeZ5myS3kyH-247" target="sMqYdDsB5LeZ5myS3kyH-271">
          <mxGeometry width="50" height="50" relative="1" as="geometry">
            <mxPoint x="560" y="1240" as="sourcePoint" />
            <mxPoint x="640.9823802609212" y="1299.6408635701623" as="targetPoint" />
          </mxGeometry>
        </mxCell>
      </root>
    </mxGraphModel>
  </diagram>
</mxfile>
